HIERARCHY
ROOT SpineBase
{
  OFFSET 0.000000 0.000000 0.000000
  CHANNELS 6 Xposition Yposition Zposition Zrotation Xrotation Yrotation
  JOINT SpineMid
  {
    OFFSET 0.000000 27.309675 -0.000000
    CHANNELS 3 Zrotation Xrotation Yrotation
    JOINT SpineShoulder
    {
      OFFSET 0.165045 20.557484 -0.683249
      CHANNELS 3 Zrotation Xrotation Yrotation
      JOINT Neck
      {
        OFFSET 0.072884 6.908462 -0.524936
        CHANNELS 3 Zrotation Xrotation Yrotation
        JOINT Head
        {
          OFFSET 4.458731 13.540553 1.691799
          CHANNELS 3 Zrotation Xrotation Yrotation
          End Site
          {
            OFFSET 0 0 0
          }
        }
      }
      JOINT ShoulderLeft
      {
        OFFSET -11.427582 0.683356 -10.204582
        CHANNELS 3 Zrotation Xrotation Yrotation
        JOINT ElbowLeft
        {
          OFFSET -2.827745 -20.735388 -9.954408
          CHANNELS 3 Zrotation Xrotation Yrotation
          JOINT WristLeft
          {
            OFFSET 3.947877 -13.774037 -9.089944
            CHANNELS 3 Zrotation Xrotation Yrotation
            JOINT HandLeft
            {
              OFFSET 0.699296 -2.584151 -2.737218
              CHANNELS 3 Zrotation Xrotation Yrotation
              JOINT HandTipLeft
              {
                OFFSET 1.413568 -1.045407 -3.260035
                CHANNELS 3 Zrotation Xrotation Yrotation
                End Site
                {
                  OFFSET 0 0 0
                }
              }
              JOINT ThumbLeft
              {
                OFFSET -3.223419 -0.685427 -1.630811
                CHANNELS 3 Zrotation Xrotation Yrotation
                End Site
                {
                  OFFSET 0 0 0
                }
              }
            }
          }
        }
      }
      JOINT ShoulderRight
      {
        OFFSET 13.351055 -4.101803 7.471945
        CHANNELS 3 Zrotation Xrotation Yrotation
        JOINT ElbowRight
        {
          OFFSET 8.861554 -24.304322 -5.838452
          CHANNELS 3 Zrotation Xrotation Yrotation
          JOINT WristRight
          {
            OFFSET 10.563412 -12.295039 -13.117610
            CHANNELS 3 Zrotation Xrotation Yrotation
            JOINT HandRight
            {
              OFFSET 0.005349 -2.869948 -3.809789
              CHANNELS 3 Zrotation Xrotation Yrotation
              JOINT HandTipRight
              {
                OFFSET 3.636592 -4.044216 -3.572717
                CHANNELS 3 Zrotation Xrotation Yrotation
                End Site
                {
                  OFFSET 0 0 0
                }
              }
              JOINT ThumbRight
              {
                OFFSET -0.332458 -0.866969 -4.731206
                CHANNELS 3 Zrotation Xrotation Yrotation
                End Site
                {
                  OFFSET 0 0 0
                }
              }
            }
          }
        }
      }
    }
  }
  JOINT HipLeft
  {
    OFFSET -5.650880 1.757014 -7.297322
    CHANNELS 3 Zrotation Xrotation Yrotation
    JOINT KneeLeft
    {
      OFFSET 8.777023 4.569613 -30.475540
      CHANNELS 3 Zrotation Xrotation Yrotation
      JOINT AnkleLeft
      {
        OFFSET 4.980675 -33.436176 0.692005
        CHANNELS 3 Zrotation Xrotation Yrotation
        JOINT FootLeft
        {
          OFFSET 6.233272 -2.255783 -11.394674
          CHANNELS 3 Zrotation Xrotation Yrotation
          End Site
          {
            OFFSET 0 0 0
          }
        }
      }
    }
  }
  JOINT HipRight
  {
    OFFSET 6.668413 1.208031 1.171260
    CHANNELS 3 Zrotation Xrotation Yrotation
    JOINT KneeRight
    {
      OFFSET 24.267775 1.690025 -14.907406
      CHANNELS 3 Zrotation Xrotation Yrotation
      JOINT AnkleRight
      {
        OFFSET -9.186102 -32.173577 -10.038725
        CHANNELS 3 Zrotation Xrotation Yrotation
        JOINT FootRight
        {
          OFFSET -6.556832 0.968787 -11.918772
          CHANNELS 3 Zrotation Xrotation Yrotation
          End Site
          {
            OFFSET 0 0 0
          }
        }
      }
    }
  }
}
MOTION
Frames: 6
Frame Time: 0.033333
-59.206004 37.278447 356.775061 0.000000 -0.000000 -34.505578 -0.000000 0.000000 34.505578 -0.000000 0.000000 0.000000 -0.000000 0.000000 0.000000 0.000000 0.000000 0.000000 -0.000000 0.000000 0.000000 -0.000000 0.000000 0.000000 -0.000000 0.000000 0.000000 -0.000000 0.000000 0.000000 0.000000 0.000000 0.000000 0.000000 0.000000 0.000000 -0.000000 0.000000 0.000000 -0.000000 0.000000 0.000000 -0.000000 0.000000 0.000000 -0.000000 0.000000 0.000000 0.000000 0.000000 0.000000 0.000000 0.000000 0.000000 -0.000000 0.000000 34.505578 -0.000000 0.000000 0.000000 -0.000000 0.000000 0.000000 0.000000 0.000000 0.000000 -0.000000 0.000000 34.505578 -0.000000 0.000000 0.000000 -0.000000 0.000000 0.000000 0.000000 0.000000 0.000000
-59.172790 37.257800 356.755324 0.061311 0.072967 -34.478790 -0.009234 -0.094857 34.478743 -0.000000 0.000000 0.000000 -0.000000 0.000000 0.000000 0.000000 0.000000 0.000000 -0.000000 0.000000 0.000000 0.745832 0.116862 -0.458306 -0.744875 -0.122814 0.456747 0.270582 2.743979 2.653587 0.000000 0.000000 0.000000 0.000000 0.000000 0.000000 -0.000000 0.000000 0.000000 -0.000000 0.000000 0.000000 -0.000000 0.000000 0.000000 0.365163 -1.295592 -1.494077 0.000000 0.000000 0.000000 0.000000 0.000000 0.000000 -0.009234 -0.094857 34.478743 -0.000000 0.000000 0.000000 -0.000000 0.000000 0.000000 0.000000 0.000000 0.000000 -0.009234 -0.094857 34.478743 -0.000000 0.000000 0.000000 -1.231128 2.819938 6.355446 0.000000 0.000000 0.000000
-59.154999 37.240118 356.747296 0.099669 0.119870 -34.452948 -0.014372 -0.155230 34.452825 -0.000000 0.000000 0.000000 -0.000000 0.000000 0.000000 0.000000 0.000000 0.000000 -0.000000 0.000000 0.000000 1.849332 0.454969 -1.089554 -0.499511 0.579119 -0.070952 -1.204705 2.787940 5.241688 0.000000 0.000000 0.000000 0.000000 0.000000 0.000000 -0.000000 0.000000 0.000000 -0.000000 0.000000 0.000000 -0.000000 0.000000 0.000000 0.598320 -2.327833 -2.644491 0.000000 0.000000 0.000000 0.000000 0.000000 0.000000 -0.014372 -0.155230 34.452825 -0.000000 0.000000 0.000000 -0.000000 0.000000 0.000000 0.000000 0.000000 0.000000 -0.014372 -0.155230 34.452825 -0.000000 0.000000 0.000000 -2.136619 4.449955 9.895735 0.000000 0.000000 0.000000
-59.152630 37.225400 356.750978 0.115060 0.140691 -34.428255 -0.015362 -0.181099 34.428090 -0.000000 0.000000 0.000000 -0.000000 0.000000 0.000000 0.000000 0.000000 0.000000 -0.000000 0.000000 0.000000 3.272422 0.985925 -1.879510 -0.617273 0.507276 -0.538143 -2.804750 1.841896 6.784386 0.000000 0.000000 0.000000 0.000000 0.000000 0.000000 -0.000000 0.000000 0.000000 -0.000000 0.000000 0.000000 -0.000000 0.000000 0.000000 0.716648 -3.090725 -3.455545 0.000000 0.000000 0.000000 0.000000 0.000000 0.000000 -0.015362 -0.181099 34.428090 -0.000000 0.000000 0.000000 -0.000000 0.000000 0.000000 0.000000 0.000000 0.000000 -0.015362 -0.181099 34.428090 -0.000000 0.000000 0.000000 -2.668124 5.288613 11.310120 0.000000 0.000000 0.000000
-59.165683 37.213646 356.766368 0.107474 0.135421 -34.404873 -0.012156 -0.172458 34.404727 -0.000000 0.000000 0.000000 -0.000000 0.000000 0.000000 0.000000 0.000000 0.000000 -0.000000 0.000000 0.000000 4.963277 1.671106 -2.808419 -0.702748 0.170056 -1.188049 -4.748956 -0.426213 7.607868 0.000000 0.000000 0.000000 0.000000 0.000000 0.000000 -0.012310 -0.765996 -0.276872 0.468359 1.560637 0.451765 -0.466003 -0.790891 -0.187583 0.732865 -3.582087 -3.931083 0.000000 0.000000 0.000000 0.000000 0.000000 0.000000 -0.012156 -0.172458 34.404727 -0.000000 0.000000 0.000000 -0.000000 0.000000 0.000000 0.000000 0.000000 0.000000 -0.012156 -0.172458 34.404727 -0.000000 0.000000 0.000000 -2.834106 5.515142 10.874785 0.000000 0.000000 0.000000
-59.194157 37.204856 356.793467 0.076913 0.104058 -34.382919 -0.004711 -0.129311 34.382844 -0.000000 0.000000 0.000000 -0.000000 0.000000 0.000000 0.000000 0.000000 0.000000 -0.000000 0.000000 0.000000 6.860143 2.466090 -3.851193 -0.824252 -0.425480 -1.901869 -6.820976 -3.799248 7.695122 0.000000 0.000000 0.000000 0.000000 0.000000 0.000000 0.020459 -0.836614 -0.310330 0.475047 1.786246 0.570747 -0.106035 -1.692548 -0.812689 0.276786 -3.053428 -3.532429 0.000000 0.000000 0.000000 0.000000 0.000000 0.000000 -0.004711 -0.129311 34.382844 -0.000000 0.000000 0.000000 -0.000000 0.000000 0.000000 0.000000 0.000000 0.000000 -0.004711 -0.129311 34.382844 -0.000000 0.000000 0.000000 -2.639492 5.145125 8.517457 0.000000 0.000000 0.000000
